<?xml version="1.0" encoding="iso-8859-1"?>
<!-- Generator: Adobe Illustrator 19.0.0, SVG Export Plug-In . SVG Version: 6.00 Build 0)  -->
<svg version="1.1" id="Layer_1" xmlns="http://www.w3.org/2000/svg" xmlns:xlink="http://www.w3.org/1999/xlink" x="0px" y="0px"
	 viewBox="0 0 511.999 511.999" style="enable-background:new 0 0 511.999 511.999;" xml:space="preserve">
<g>
	<g>
		<path d="M385.28,285.297c-16.426,0-32.316,3.478-46.839,10.072l-25.999-25.999L477.489,104.32
			c28.144-28.144,28.144-73.94,0-102.084C476.057,0.804,474.114,0,472.089,0s-3.966,0.804-5.4,2.237l-210.69,210.69L45.308,2.237
			C43.877,0.804,41.934,0,39.909,0c-2.025,0-3.967,0.804-5.399,2.237c-28.145,28.145-28.145,73.94,0,102.084l165.048,165.048
			l-26.042,26.041c-41.754-18.872-92.681-11.181-126.949,23.087c-44.196,44.196-44.196,116.108,0,160.304
			c21.41,21.41,49.875,33.2,80.152,33.2c30.278,0,58.743-11.791,80.152-33.2c34.268-34.268,41.958-85.194,23.087-126.949
			l26.042-26.041l25.999,25.999c-6.594,14.523-10.072,30.411-10.072,46.839c0,30.278,11.79,58.743,33.199,80.152
			c21.409,21.41,49.874,33.2,80.152,33.2c30.277,0,58.742-11.791,80.152-33.2c44.195-44.196,44.195-116.108,0-160.304
			C444.022,297.087,415.557,285.297,385.28,285.297z M471.729,18.794c17.003,22.293,15.323,54.367-5.038,74.729L301.643,258.571
			l-34.845-34.845L471.729,18.794z M196.073,468.002c-18.525,18.525-43.156,28.728-69.354,28.728
			c-26.198,0-50.829-10.202-69.354-28.728c-38.241-38.241-38.241-100.466,0-138.707c19.123-19.123,44.235-28.681,69.354-28.681
			c25.113,0,50.235,9.563,69.354,28.681C234.315,367.536,234.315,429.76,196.073,468.002z M222.381,337.832
			c-4.362-6.86-9.528-13.354-15.51-19.335c-5.982-5.982-12.475-11.147-19.335-15.51l22.82-22.82l34.845,34.845L222.381,337.832z
			 M261.4,309.614l-0.001-0.001l-0.001-0.001L45.308,93.523C24.947,73.162,23.267,41.088,40.27,18.794l210.324,210.324
			c0.002,0.002,0.004,0.004,0.006,0.006c0.002,0.002,0.004,0.004,0.006,0.006l45.635,45.637c0,0,0,0,0.001,0.001
			c0,0,0,0,0.001,0.001l28.196,28.196c-6.904,4.409-13.38,9.599-19.313,15.531c-5.932,5.932-11.122,12.408-15.531,19.313
			L261.4,309.614z M454.633,468.002c-18.525,18.525-43.155,28.728-69.353,28.728c-26.199,0-50.83-10.202-69.353-28.728
			c-18.526-18.525-28.728-43.156-28.728-69.354c0-15.716,3.675-30.864,10.612-44.473c0.158-0.265,0.3-0.537,0.424-0.815
			c4.572-8.763,10.502-16.876,17.692-24.066c7.192-7.192,15.307-13.123,24.074-17.696c0.273-0.121,0.54-0.261,0.8-0.415
			c13.609-6.939,28.76-10.615,44.479-10.615c26.198,0,50.829,10.202,69.353,28.727C492.874,367.536,492.874,429.76,454.633,468.002z
			"/>
	</g>
</g>
<g>
	<g>
		<path d="M432.788,351.14c-12.69-12.691-29.562-19.679-47.51-19.679c-17.946,0-34.819,6.989-47.509,19.679
			c-12.69,12.69-19.679,29.562-19.679,47.51c0,17.946,6.989,34.819,19.679,47.509c13.1,13.1,30.303,19.648,47.51,19.648
			c17.202-0.001,34.411-6.551,47.509-19.648c12.69-12.69,19.679-29.562,19.679-47.509
			C452.467,380.703,445.478,363.83,432.788,351.14z M421.989,435.36c-20.242,20.243-53.178,20.242-73.42,0
			c-9.807-9.806-15.208-22.843-15.208-36.711c0-13.868,5.401-26.905,15.208-36.711c9.806-9.806,22.843-15.207,36.71-15.207
			c13.868,0,26.906,5.401,36.711,15.207c9.807,9.806,15.208,22.843,15.208,36.711C437.197,412.515,431.796,425.554,421.989,435.36z"
			/>
	</g>
</g>
<g>
	<g>
		<path d="M174.23,351.14c-12.691-12.691-29.563-19.679-47.51-19.679s-34.819,6.989-47.509,19.679
			c-26.197,26.197-26.197,68.822,0,95.018c13.099,13.1,30.302,19.648,47.509,19.648c17.203,0,34.412-6.551,47.51-19.648
			C200.426,419.961,200.426,377.336,174.23,351.14z M163.431,435.36c-20.242,20.242-53.179,20.242-73.422,0
			c-20.242-20.242-20.242-53.179,0-73.422c9.806-9.806,22.843-15.207,36.711-15.207s26.905,5.401,36.711,15.207
			C183.672,382.179,183.672,415.116,163.431,435.36z"/>
	</g>
</g>
<g>
	<g>
		<path d="M254.321,249.194c-10.066,0-18.254,8.188-18.254,18.255s8.188,18.255,18.254,18.255c10.066,0,18.255-8.188,18.255-18.255
			C272.575,257.383,264.386,249.194,254.321,249.194z M254.321,270.433c-1.644,0-2.983-1.338-2.983-2.984
			c0-1.646,1.339-2.984,2.983-2.984c1.645,0,2.984,1.338,2.984,2.984C257.305,269.095,255.966,270.433,254.321,270.433z"/>
	</g>
</g>
<g>
</g>
<g>
</g>
<g>
</g>
<g>
</g>
<g>
</g>
<g>
</g>
<g>
</g>
<g>
</g>
<g>
</g>
<g>
</g>
<g>
</g>
<g>
</g>
<g>
</g>
<g>
</g>
<g>
</g>
</svg>
