<?xml version="1.0" encoding="iso-8859-1"?>
<!-- Generator: Adobe Illustrator 19.0.0, SVG Export Plug-In . SVG Version: 6.00 Build 0)  -->
<svg version="1.1" id="Layer_1" xmlns="http://www.w3.org/2000/svg" xmlns:xlink="http://www.w3.org/1999/xlink" x="0px" y="0px"
	 viewBox="0 0 512 512" style="enable-background:new 0 0 512 512;" xml:space="preserve">
<g>
	<g>
		<g>
			<path d="M149.333,0H10.667C4.776,0,0,4.776,0,10.667v138.667C0,155.224,4.776,160,10.667,160h138.667
				c5.891,0,10.667-4.776,10.667-10.667V10.667C160,4.776,155.224,0,149.333,0z M138.667,138.667H21.333V21.333h117.333V138.667z"/>
			<path d="M330.667,0H181.333c-5.891,0-10.667,4.776-10.667,10.667v138.667c0,5.891,4.776,10.667,10.667,10.667h149.333
				c5.891,0,10.667-4.776,10.667-10.667V10.667C341.333,4.776,336.558,0,330.667,0z M320,138.667H192V21.333h128V138.667z"/>
			<path d="M501.333,0H362.667C356.776,0,352,4.776,352,10.667v138.667c0,5.891,4.776,10.667,10.667,10.667h138.667
				c5.891,0,10.667-4.776,10.667-10.667V10.667C512,4.776,507.224,0,501.333,0z M490.667,138.667H373.333V21.333h117.333V138.667z"
				/>
			<path d="M149.333,170.667H10.667C4.776,170.667,0,175.442,0,181.333v149.333c0,5.891,4.776,10.667,10.667,10.667h138.667
				c5.891,0,10.667-4.776,10.667-10.667V181.333C160,175.442,155.224,170.667,149.333,170.667z M138.667,320H21.333V192h117.333V320
				z"/>
			<path d="M330.667,170.667H181.333c-5.891,0-10.667,4.776-10.667,10.667v149.333c0,5.891,4.776,10.667,10.667,10.667h149.333
				c5.891,0,10.667-4.776,10.667-10.667V181.333C341.333,175.442,336.558,170.667,330.667,170.667z M320,320H192V192h128V320z"/>
			<path d="M501.333,170.667H362.667c-5.891,0-10.667,4.776-10.667,10.667v149.333c0,5.891,4.776,10.667,10.667,10.667h138.667
				c5.891,0,10.667-4.776,10.667-10.667V181.333C512,175.442,507.224,170.667,501.333,170.667z M490.667,320H373.333V192h117.333
				V320z"/>
			<path d="M149.333,352H10.667C4.776,352,0,356.776,0,362.667v138.667C0,507.224,4.776,512,10.667,512h138.667
				c5.891,0,10.667-4.776,10.667-10.667V362.667C160,356.776,155.224,352,149.333,352z M138.667,490.667H21.333V373.333h117.333
				V490.667z"/>
			<path d="M330.667,352H181.333c-5.891,0-10.667,4.776-10.667,10.667v138.667c0,5.891,4.776,10.667,10.667,10.667h149.333
				c5.891,0,10.667-4.776,10.667-10.667V362.667C341.333,356.776,336.558,352,330.667,352z M320,490.667H192V373.333h128V490.667z"
				/>
			<path d="M501.333,352H362.667c-5.891,0-10.667,4.776-10.667,10.667v138.667c0,5.891,4.776,10.667,10.667,10.667h138.667
				c5.891,0,10.667-4.776,10.667-10.667V362.667C512,356.776,507.224,352,501.333,352z M490.667,490.667H373.333V373.333h117.333
				V490.667z"/>
		</g>
	</g>
</g>
<g>
</g>
<g>
</g>
<g>
</g>
<g>
</g>
<g>
</g>
<g>
</g>
<g>
</g>
<g>
</g>
<g>
</g>
<g>
</g>
<g>
</g>
<g>
</g>
<g>
</g>
<g>
</g>
<g>
</g>
</svg>
